<svg id="visual" viewBox="0 0 960 540" width="960" height="540" xmlns="http://www.w3.org/2000/svg" xmlns:xlink="http://www.w3.org/1999/xlink" version="1.1"><rect x="0" y="0" width="960" height="540" fill="#E2F1E7"></rect><defs><linearGradient id="grad1_0" x1="43.8%" y1="100%" x2="100%" y2="0%"><stop offset="14.444444444444446%" stop-color="#e2f1e7" stop-opacity="1"></stop><stop offset="85.55555555555554%" stop-color="#e2f1e7" stop-opacity="1"></stop></linearGradient></defs><defs><linearGradient id="grad2_0" x1="0%" y1="100%" x2="56.3%" y2="0%"><stop offset="14.444444444444446%" stop-color="#e2f1e7" stop-opacity="1"></stop><stop offset="85.55555555555554%" stop-color="#e2f1e7" stop-opacity="1"></stop></linearGradient></defs><g transform="translate(960, 540)"><path d="M-351 0C-320.6 -39.7 -290.2 -79.5 -264.2 -109.4C-238.2 -139.4 -216.5 -159.6 -198.7 -198.7C-180.8 -237.8 -166.8 -295.8 -134.3 -324.3C-101.8 -352.8 -50.9 -351.9 0 -351L0 0Z" fill="#629584"></path></g><g transform="translate(0, 0)"><path d="M351 0C336.5 45.8 322.1 91.6 295.6 122.5C269.2 153.3 230.8 169.2 205.1 205.1C179.4 240.9 166.4 296.6 134.3 324.3C102.3 351.9 51.1 351.5 0 351L0 0Z" fill="#629584"></path></g></svg>